<mxfile host="app.diagrams.net" agent="Mozilla/5.0 (Windows NT 10.0; Win64; x64) AppleWebKit/537.36 (KHTML, like Gecko) Chrome/131.0.0.0 Safari/537.36" version="26.0.2">
  <diagram id="R2lEEEUBdFMjLlhIrx00" name="Page-1">
    <mxGraphModel dx="1028" dy="551" grid="1" gridSize="10" guides="1" tooltips="1" connect="1" arrows="1" fold="1" page="1" pageScale="1" pageWidth="850" pageHeight="1100" math="0" shadow="0" extFonts="Permanent Marker^https://fonts.googleapis.com/css?family=Permanent+Marker">
      <root>
        <mxCell id="0" />
        <mxCell id="1" parent="0" />
        <mxCell id="lFk9IerQNJr3fiCkYtgy-4" value="Usuario" style="whiteSpace=wrap;html=1;align=center;" parent="1" vertex="1">
          <mxGeometry x="870" y="330" width="100" height="40" as="geometry" />
        </mxCell>
        <mxCell id="lFk9IerQNJr3fiCkYtgy-5" value="nombre" style="ellipse;whiteSpace=wrap;html=1;align=center;" parent="1" vertex="1">
          <mxGeometry x="700" y="260" width="100" height="40" as="geometry" />
        </mxCell>
        <mxCell id="lFk9IerQNJr3fiCkYtgy-6" value="" style="endArrow=classic;html=1;rounded=0;" parent="1" source="lFk9IerQNJr3fiCkYtgy-4" target="lFk9IerQNJr3fiCkYtgy-5" edge="1">
          <mxGeometry width="50" height="50" relative="1" as="geometry">
            <mxPoint x="920" y="480" as="sourcePoint" />
            <mxPoint x="970" y="430" as="targetPoint" />
          </mxGeometry>
        </mxCell>
        <mxCell id="lFk9IerQNJr3fiCkYtgy-9" value="" style="endArrow=classic;html=1;rounded=0;entryX=0.5;entryY=0;entryDx=0;entryDy=0;" parent="1" source="lFk9IerQNJr3fiCkYtgy-4" target="lFk9IerQNJr3fiCkYtgy-17" edge="1">
          <mxGeometry width="50" height="50" relative="1" as="geometry">
            <mxPoint x="860" y="450" as="sourcePoint" />
            <mxPoint x="920" y="460" as="targetPoint" />
          </mxGeometry>
        </mxCell>
        <mxCell id="lFk9IerQNJr3fiCkYtgy-11" value="" style="endArrow=classic;html=1;rounded=0;exitX=0.446;exitY=0.05;exitDx=0;exitDy=0;entryX=0.726;entryY=0.88;entryDx=0;entryDy=0;exitPerimeter=0;entryPerimeter=0;" parent="1" source="lFk9IerQNJr3fiCkYtgy-4" target="lFk9IerQNJr3fiCkYtgy-12" edge="1">
          <mxGeometry width="50" height="50" relative="1" as="geometry">
            <mxPoint x="890" y="450" as="sourcePoint" />
            <mxPoint x="940" y="400" as="targetPoint" />
          </mxGeometry>
        </mxCell>
        <mxCell id="lFk9IerQNJr3fiCkYtgy-12" value="id" style="ellipse;whiteSpace=wrap;html=1;align=center;fontStyle=4;" parent="1" vertex="1">
          <mxGeometry x="770" y="200" width="100" height="40" as="geometry" />
        </mxCell>
        <mxCell id="lFk9IerQNJr3fiCkYtgy-13" value="url_imagen" style="ellipse;whiteSpace=wrap;html=1;align=center;fontStyle=4;" parent="1" vertex="1">
          <mxGeometry x="640" y="390" width="100" height="40" as="geometry" />
        </mxCell>
        <mxCell id="lFk9IerQNJr3fiCkYtgy-14" value="" style="endArrow=classic;html=1;rounded=0;" parent="1" source="lFk9IerQNJr3fiCkYtgy-4" target="lFk9IerQNJr3fiCkYtgy-13" edge="1">
          <mxGeometry width="50" height="50" relative="1" as="geometry">
            <mxPoint x="930" y="380" as="sourcePoint" />
            <mxPoint x="880" y="510" as="targetPoint" />
          </mxGeometry>
        </mxCell>
        <mxCell id="lFk9IerQNJr3fiCkYtgy-16" value="" style="endArrow=classic;html=1;rounded=0;exitX=0;exitY=0.5;exitDx=0;exitDy=0;" parent="1" source="lFk9IerQNJr3fiCkYtgy-4" target="SbTGMap7O2Ixag9LzvXe-36" edge="1">
          <mxGeometry width="50" height="50" relative="1" as="geometry">
            <mxPoint x="860" y="350" as="sourcePoint" />
            <mxPoint x="779.3084515891301" y="343.31485388834494" as="targetPoint" />
          </mxGeometry>
        </mxCell>
        <mxCell id="lFk9IerQNJr3fiCkYtgy-17" value="admin" style="ellipse;whiteSpace=wrap;html=1;align=center;" parent="1" vertex="1">
          <mxGeometry x="720" y="440" width="100" height="40" as="geometry" />
        </mxCell>
        <mxCell id="lFk9IerQNJr3fiCkYtgy-18" value="Hace" style="shape=rhombus;perimeter=rhombusPerimeter;whiteSpace=wrap;html=1;align=center;" parent="1" vertex="1">
          <mxGeometry x="870" y="140" width="120" height="60" as="geometry" />
        </mxCell>
        <mxCell id="lFk9IerQNJr3fiCkYtgy-19" value="(n,m)" style="text;strokeColor=none;fillColor=none;spacingLeft=4;spacingRight=4;overflow=hidden;rotatable=0;points=[[0,0.5],[1,0.5]];portConstraint=eastwest;fontSize=12;whiteSpace=wrap;html=1;" parent="1" vertex="1">
          <mxGeometry x="910" y="110" width="40" height="30" as="geometry" />
        </mxCell>
        <mxCell id="lFk9IerQNJr3fiCkYtgy-20" value="" style="endArrow=classic;html=1;rounded=0;entryX=0.5;entryY=1;entryDx=0;entryDy=0;" parent="1" target="lFk9IerQNJr3fiCkYtgy-18" edge="1">
          <mxGeometry width="50" height="50" relative="1" as="geometry">
            <mxPoint x="930" y="330" as="sourcePoint" />
            <mxPoint x="980" y="280" as="targetPoint" />
          </mxGeometry>
        </mxCell>
        <mxCell id="lFk9IerQNJr3fiCkYtgy-21" value="" style="endArrow=classic;html=1;rounded=0;entryX=1;entryY=0.5;entryDx=0;entryDy=0;" parent="1" source="lFk9IerQNJr3fiCkYtgy-18" target="lFk9IerQNJr3fiCkYtgy-4" edge="1">
          <mxGeometry width="50" height="50" relative="1" as="geometry">
            <mxPoint x="990" y="220" as="sourcePoint" />
            <mxPoint x="1070" y="360" as="targetPoint" />
            <Array as="points">
              <mxPoint x="1070" y="170" />
              <mxPoint x="1070" y="350" />
            </Array>
          </mxGeometry>
        </mxCell>
        <mxCell id="lFk9IerQNJr3fiCkYtgy-22" value="titulo" style="ellipse;whiteSpace=wrap;html=1;align=center;" parent="1" vertex="1">
          <mxGeometry x="710" y="560" width="100" height="40" as="geometry" />
        </mxCell>
        <mxCell id="lFk9IerQNJr3fiCkYtgy-23" value="" style="endArrow=classic;html=1;rounded=0;" parent="1" source="lFk9IerQNJr3fiCkYtgy-32" target="lFk9IerQNJr3fiCkYtgy-22" edge="1">
          <mxGeometry width="50" height="50" relative="1" as="geometry">
            <mxPoint x="930" y="780" as="sourcePoint" />
            <mxPoint x="980" y="730" as="targetPoint" />
          </mxGeometry>
        </mxCell>
        <mxCell id="lFk9IerQNJr3fiCkYtgy-24" value="" style="endArrow=classic;html=1;rounded=0;entryX=0.5;entryY=0;entryDx=0;entryDy=0;" parent="1" source="lFk9IerQNJr3fiCkYtgy-32" target="lFk9IerQNJr3fiCkYtgy-29" edge="1">
          <mxGeometry width="50" height="50" relative="1" as="geometry">
            <mxPoint x="870" y="750" as="sourcePoint" />
            <mxPoint x="930" y="760" as="targetPoint" />
          </mxGeometry>
        </mxCell>
        <mxCell id="lFk9IerQNJr3fiCkYtgy-25" value="" style="endArrow=classic;html=1;rounded=0;exitX=0.446;exitY=0.05;exitDx=0;exitDy=0;entryX=0.726;entryY=0.88;entryDx=0;entryDy=0;exitPerimeter=0;entryPerimeter=0;" parent="1" source="lFk9IerQNJr3fiCkYtgy-32" target="lFk9IerQNJr3fiCkYtgy-31" edge="1">
          <mxGeometry width="50" height="50" relative="1" as="geometry">
            <mxPoint x="900" y="750" as="sourcePoint" />
            <mxPoint x="950" y="700" as="targetPoint" />
          </mxGeometry>
        </mxCell>
        <mxCell id="lFk9IerQNJr3fiCkYtgy-26" value="" style="endArrow=classic;html=1;rounded=0;entryX=0.982;entryY=0.29;entryDx=0;entryDy=0;entryPerimeter=0;" parent="1" source="lFk9IerQNJr3fiCkYtgy-32" target="lFk9IerQNJr3fiCkYtgy-34" edge="1">
          <mxGeometry width="50" height="50" relative="1" as="geometry">
            <mxPoint x="940" y="680" as="sourcePoint" />
            <mxPoint x="743.9939880575212" y="700.4960722663195" as="targetPoint" />
          </mxGeometry>
        </mxCell>
        <mxCell id="lFk9IerQNJr3fiCkYtgy-27" value="descripcion" style="ellipse;whiteSpace=wrap;html=1;align=center;" parent="1" vertex="1">
          <mxGeometry x="690" y="620" width="100" height="40" as="geometry" />
        </mxCell>
        <mxCell id="lFk9IerQNJr3fiCkYtgy-28" value="" style="endArrow=classic;html=1;rounded=0;exitX=0;exitY=0.5;exitDx=0;exitDy=0;" parent="1" source="lFk9IerQNJr3fiCkYtgy-32" target="lFk9IerQNJr3fiCkYtgy-27" edge="1">
          <mxGeometry width="50" height="50" relative="1" as="geometry">
            <mxPoint x="870" y="650" as="sourcePoint" />
            <mxPoint x="805" y="604" as="targetPoint" />
          </mxGeometry>
        </mxCell>
        <mxCell id="lFk9IerQNJr3fiCkYtgy-29" value="admin" style="ellipse;whiteSpace=wrap;html=1;align=center;" parent="1" vertex="1">
          <mxGeometry x="730" y="740" width="100" height="40" as="geometry" />
        </mxCell>
        <mxCell id="lFk9IerQNJr3fiCkYtgy-31" value="id" style="ellipse;whiteSpace=wrap;html=1;align=center;fontStyle=4;" parent="1" vertex="1">
          <mxGeometry x="780" y="500" width="100" height="40" as="geometry" />
        </mxCell>
        <mxCell id="SbTGMap7O2Ixag9LzvXe-13" style="edgeStyle=orthogonalEdgeStyle;rounded=0;orthogonalLoop=1;jettySize=auto;html=1;exitX=1;exitY=0.5;exitDx=0;exitDy=0;" edge="1" parent="1" source="lFk9IerQNJr3fiCkYtgy-32" target="SbTGMap7O2Ixag9LzvXe-12">
          <mxGeometry relative="1" as="geometry" />
        </mxCell>
        <mxCell id="SbTGMap7O2Ixag9LzvXe-16" style="edgeStyle=orthogonalEdgeStyle;rounded=0;orthogonalLoop=1;jettySize=auto;html=1;" edge="1" parent="1" source="lFk9IerQNJr3fiCkYtgy-32" target="SbTGMap7O2Ixag9LzvXe-15">
          <mxGeometry relative="1" as="geometry" />
        </mxCell>
        <mxCell id="SbTGMap7O2Ixag9LzvXe-32" style="edgeStyle=orthogonalEdgeStyle;rounded=0;orthogonalLoop=1;jettySize=auto;html=1;" edge="1" parent="1" source="lFk9IerQNJr3fiCkYtgy-32" target="SbTGMap7O2Ixag9LzvXe-31">
          <mxGeometry relative="1" as="geometry">
            <Array as="points">
              <mxPoint x="1018" y="640" />
              <mxPoint x="1018" y="620" />
            </Array>
          </mxGeometry>
        </mxCell>
        <mxCell id="lFk9IerQNJr3fiCkYtgy-32" value="Tarea" style="whiteSpace=wrap;html=1;align=center;" parent="1" vertex="1">
          <mxGeometry x="880" y="640" width="100" height="40" as="geometry" />
        </mxCell>
        <mxCell id="lFk9IerQNJr3fiCkYtgy-34" value="fecha_actividad" style="ellipse;whiteSpace=wrap;html=1;align=center;" parent="1" vertex="1">
          <mxGeometry x="650" y="690" width="100" height="40" as="geometry" />
        </mxCell>
        <mxCell id="lFk9IerQNJr3fiCkYtgy-35" value="estado" style="ellipse;whiteSpace=wrap;html=1;align=center;" parent="1" vertex="1">
          <mxGeometry x="1180" y="790" width="100" height="40" as="geometry" />
        </mxCell>
        <mxCell id="lFk9IerQNJr3fiCkYtgy-40" value="Tiene" style="shape=rhombus;perimeter=rhombusPerimeter;whiteSpace=wrap;html=1;align=center;" parent="1" vertex="1">
          <mxGeometry x="870" y="440" width="120" height="60" as="geometry" />
        </mxCell>
        <mxCell id="lFk9IerQNJr3fiCkYtgy-41" value="" style="endArrow=classic;html=1;rounded=0;exitX=0.47;exitY=0.035;exitDx=0;exitDy=0;exitPerimeter=0;" parent="1" source="lFk9IerQNJr3fiCkYtgy-32" target="lFk9IerQNJr3fiCkYtgy-40" edge="1">
          <mxGeometry width="50" height="50" relative="1" as="geometry">
            <mxPoint x="935" y="640" as="sourcePoint" />
            <mxPoint x="935" y="510" as="targetPoint" />
          </mxGeometry>
        </mxCell>
        <mxCell id="lFk9IerQNJr3fiCkYtgy-42" value="" style="endArrow=classic;html=1;rounded=0;entryX=0.5;entryY=0;entryDx=0;entryDy=0;" parent="1" source="lFk9IerQNJr3fiCkYtgy-4" target="lFk9IerQNJr3fiCkYtgy-40" edge="1">
          <mxGeometry width="50" height="50" relative="1" as="geometry">
            <mxPoint x="940" y="340" as="sourcePoint" />
            <mxPoint x="940" y="210" as="targetPoint" />
          </mxGeometry>
        </mxCell>
        <mxCell id="lFk9IerQNJr3fiCkYtgy-43" value="Crea" style="shape=rhombus;perimeter=rhombusPerimeter;whiteSpace=wrap;html=1;align=center;" parent="1" vertex="1">
          <mxGeometry x="1390" y="550" width="120" height="60" as="geometry" />
        </mxCell>
        <mxCell id="lFk9IerQNJr3fiCkYtgy-44" value="(1,n)" style="text;strokeColor=none;fillColor=none;spacingLeft=4;spacingRight=4;overflow=hidden;rotatable=0;points=[[0,0.5],[1,0.5]];portConstraint=eastwest;fontSize=12;whiteSpace=wrap;html=1;" parent="1" vertex="1">
          <mxGeometry x="860" y="430" width="40" height="30" as="geometry" />
        </mxCell>
        <mxCell id="lFk9IerQNJr3fiCkYtgy-45" value="" style="endArrow=classic;html=1;rounded=0;entryX=0;entryY=0.5;entryDx=0;entryDy=0;exitX=0.644;exitY=0.931;exitDx=0;exitDy=0;exitPerimeter=0;" parent="1" source="lFk9IerQNJr3fiCkYtgy-4" target="lFk9IerQNJr3fiCkYtgy-43" edge="1">
          <mxGeometry width="50" height="50" relative="1" as="geometry">
            <mxPoint x="1100" y="510" as="sourcePoint" />
            <mxPoint x="1444" y="290" as="targetPoint" />
            <Array as="points">
              <mxPoint x="1040" y="510" />
              <mxPoint x="1230" y="580" />
            </Array>
          </mxGeometry>
        </mxCell>
        <mxCell id="SbTGMap7O2Ixag9LzvXe-14" style="edgeStyle=orthogonalEdgeStyle;rounded=0;orthogonalLoop=1;jettySize=auto;html=1;" edge="1" parent="1" source="lFk9IerQNJr3fiCkYtgy-48" target="SbTGMap7O2Ixag9LzvXe-12">
          <mxGeometry relative="1" as="geometry" />
        </mxCell>
        <mxCell id="SbTGMap7O2Ixag9LzvXe-26" style="edgeStyle=orthogonalEdgeStyle;rounded=0;orthogonalLoop=1;jettySize=auto;html=1;entryX=0;entryY=0.5;entryDx=0;entryDy=0;" edge="1" parent="1" source="lFk9IerQNJr3fiCkYtgy-48" target="SbTGMap7O2Ixag9LzvXe-37">
          <mxGeometry relative="1" as="geometry">
            <mxPoint x="1810" y="770" as="targetPoint" />
            <Array as="points">
              <mxPoint x="1610" y="770" />
            </Array>
          </mxGeometry>
        </mxCell>
        <mxCell id="lFk9IerQNJr3fiCkYtgy-48" value="Tipo" style="whiteSpace=wrap;html=1;align=center;" parent="1" vertex="1">
          <mxGeometry x="1560" y="680" width="100" height="40" as="geometry" />
        </mxCell>
        <mxCell id="lFk9IerQNJr3fiCkYtgy-49" value="" style="endArrow=classic;html=1;rounded=0;exitX=1;exitY=0.5;exitDx=0;exitDy=0;" parent="1" source="lFk9IerQNJr3fiCkYtgy-48" target="lFk9IerQNJr3fiCkYtgy-50" edge="1">
          <mxGeometry width="50" height="50" relative="1" as="geometry">
            <mxPoint x="1395" y="710" as="sourcePoint" />
            <mxPoint x="1330" y="664" as="targetPoint" />
          </mxGeometry>
        </mxCell>
        <mxCell id="lFk9IerQNJr3fiCkYtgy-50" value="color" style="ellipse;whiteSpace=wrap;html=1;align=center;" parent="1" vertex="1">
          <mxGeometry x="1800" y="670" width="100" height="40" as="geometry" />
        </mxCell>
        <mxCell id="lFk9IerQNJr3fiCkYtgy-51" value="nombre" style="ellipse;whiteSpace=wrap;html=1;align=center;" parent="1" vertex="1">
          <mxGeometry x="1630" y="590" width="100" height="40" as="geometry" />
        </mxCell>
        <mxCell id="lFk9IerQNJr3fiCkYtgy-52" value="" style="endArrow=classic;html=1;rounded=0;" parent="1" source="lFk9IerQNJr3fiCkYtgy-48" target="lFk9IerQNJr3fiCkYtgy-51" edge="1">
          <mxGeometry width="50" height="50" relative="1" as="geometry">
            <mxPoint x="1455" y="840" as="sourcePoint" />
            <mxPoint x="1505" y="790" as="targetPoint" />
          </mxGeometry>
        </mxCell>
        <mxCell id="lFk9IerQNJr3fiCkYtgy-53" value="id" style="ellipse;whiteSpace=wrap;html=1;align=center;fontStyle=4;" parent="1" vertex="1">
          <mxGeometry x="1552.6799999999998" y="550" width="100" height="40" as="geometry" />
        </mxCell>
        <mxCell id="lFk9IerQNJr3fiCkYtgy-54" value="" style="endArrow=classic;html=1;rounded=0;" parent="1" source="lFk9IerQNJr3fiCkYtgy-48" target="lFk9IerQNJr3fiCkYtgy-53" edge="1">
          <mxGeometry width="50" height="50" relative="1" as="geometry">
            <mxPoint x="1423" y="710" as="sourcePoint" />
            <mxPoint x="1327" y="665" as="targetPoint" />
          </mxGeometry>
        </mxCell>
        <mxCell id="lFk9IerQNJr3fiCkYtgy-57" value="" style="endArrow=classic;html=1;rounded=0;entryX=1;entryY=0.5;entryDx=0;entryDy=0;" parent="1" source="lFk9IerQNJr3fiCkYtgy-48" edge="1" target="lFk9IerQNJr3fiCkYtgy-43">
          <mxGeometry width="50" height="50" relative="1" as="geometry">
            <mxPoint x="1447" y="451" as="sourcePoint" />
            <mxPoint x="1455" y="600" as="targetPoint" />
          </mxGeometry>
        </mxCell>
        <mxCell id="lFk9IerQNJr3fiCkYtgy-58" value="(1,n)" style="text;strokeColor=none;fillColor=none;spacingLeft=4;spacingRight=4;overflow=hidden;rotatable=0;points=[[0,0.5],[1,0.5]];portConstraint=eastwest;fontSize=12;whiteSpace=wrap;html=1;" parent="1" vertex="1">
          <mxGeometry x="1440" y="520" width="40" height="30" as="geometry" />
        </mxCell>
        <mxCell id="lFk9IerQNJr3fiCkYtgy-60" value="diario" style="whiteSpace=wrap;html=1;align=center;" parent="1" vertex="1">
          <mxGeometry x="1350" y="400" width="100" height="40" as="geometry" />
        </mxCell>
        <mxCell id="lFk9IerQNJr3fiCkYtgy-62" value="fecha_actividad" style="ellipse;whiteSpace=wrap;html=1;align=center;" parent="1" vertex="1">
          <mxGeometry x="1600" y="440" width="100" height="40" as="geometry" />
        </mxCell>
        <mxCell id="lFk9IerQNJr3fiCkYtgy-63" value="" style="endArrow=classic;html=1;rounded=0;entryX=0;entryY=0.5;entryDx=0;entryDy=0;" parent="1" source="lFk9IerQNJr3fiCkYtgy-60" target="lFk9IerQNJr3fiCkYtgy-62" edge="1">
          <mxGeometry width="50" height="50" relative="1" as="geometry">
            <mxPoint x="1432.6799999999998" y="400" as="sourcePoint" />
            <mxPoint x="1236.6739880575212" y="420.4960722663195" as="targetPoint" />
          </mxGeometry>
        </mxCell>
        <mxCell id="lFk9IerQNJr3fiCkYtgy-65" value="descripcion" style="ellipse;whiteSpace=wrap;html=1;align=center;" parent="1" vertex="1">
          <mxGeometry x="1200" y="230" width="100" height="40" as="geometry" />
        </mxCell>
        <mxCell id="lFk9IerQNJr3fiCkYtgy-66" value="titulo" style="ellipse;whiteSpace=wrap;html=1;align=center;" parent="1" vertex="1">
          <mxGeometry x="1332.68" y="230" width="100" height="40" as="geometry" />
        </mxCell>
        <mxCell id="lFk9IerQNJr3fiCkYtgy-67" value="" style="endArrow=classic;html=1;rounded=0;" parent="1" source="lFk9IerQNJr3fiCkYtgy-60" target="lFk9IerQNJr3fiCkYtgy-66" edge="1">
          <mxGeometry width="50" height="50" relative="1" as="geometry">
            <mxPoint x="1422.68" y="500" as="sourcePoint" />
            <mxPoint x="1472.6799999999998" y="450" as="targetPoint" />
          </mxGeometry>
        </mxCell>
        <mxCell id="lFk9IerQNJr3fiCkYtgy-68" value="" style="endArrow=classic;html=1;rounded=0;exitX=0.833;exitY=0.042;exitDx=0;exitDy=0;entryX=0.726;entryY=0.88;entryDx=0;entryDy=0;exitPerimeter=0;entryPerimeter=0;" parent="1" source="lFk9IerQNJr3fiCkYtgy-60" target="lFk9IerQNJr3fiCkYtgy-69" edge="1">
          <mxGeometry width="50" height="50" relative="1" as="geometry">
            <mxPoint x="1392.68" y="470" as="sourcePoint" />
            <mxPoint x="1442.6799999999998" y="420" as="targetPoint" />
          </mxGeometry>
        </mxCell>
        <mxCell id="lFk9IerQNJr3fiCkYtgy-69" value="id" style="ellipse;whiteSpace=wrap;html=1;align=center;fontStyle=4;" parent="1" vertex="1">
          <mxGeometry x="1552.6799999999998" y="220" width="100" height="40" as="geometry" />
        </mxCell>
        <mxCell id="lFk9IerQNJr3fiCkYtgy-70" value="" style="endArrow=classic;html=1;rounded=0;exitX=0;exitY=0.25;exitDx=0;exitDy=0;entryX=0.692;entryY=0.979;entryDx=0;entryDy=0;entryPerimeter=0;" parent="1" source="lFk9IerQNJr3fiCkYtgy-60" target="lFk9IerQNJr3fiCkYtgy-65" edge="1">
          <mxGeometry width="50" height="50" relative="1" as="geometry">
            <mxPoint x="1390.68" y="370" as="sourcePoint" />
            <mxPoint x="1269.998704137958" y="258.761929482788" as="targetPoint" />
          </mxGeometry>
        </mxCell>
        <mxCell id="lFk9IerQNJr3fiCkYtgy-72" value="" style="endArrow=classic;html=1;rounded=0;entryX=0.456;entryY=1.003;entryDx=0;entryDy=0;exitX=0.713;exitY=-0.025;exitDx=0;exitDy=0;entryPerimeter=0;exitPerimeter=0;" parent="1" source="lFk9IerQNJr3fiCkYtgy-32" target="SbTGMap7O2Ixag9LzvXe-28" edge="1">
          <mxGeometry width="50" height="50" relative="1" as="geometry">
            <mxPoint x="935" y="652" as="sourcePoint" />
            <mxPoint x="994.8544793961714" y="584.225567863454" as="targetPoint" />
          </mxGeometry>
        </mxCell>
        <mxCell id="lFk9IerQNJr3fiCkYtgy-74" value="" style="endArrow=classic;html=1;rounded=0;exitX=0.167;exitY=1.063;exitDx=0;exitDy=0;exitPerimeter=0;" parent="1" source="lFk9IerQNJr3fiCkYtgy-60" target="SbTGMap7O2Ixag9LzvXe-33" edge="1">
          <mxGeometry width="50" height="50" relative="1" as="geometry">
            <mxPoint x="1382.68" y="401" as="sourcePoint" />
            <mxPoint x="1344.3800000000006" y="487.52" as="targetPoint" />
          </mxGeometry>
        </mxCell>
        <mxCell id="lFk9IerQNJr3fiCkYtgy-75" value="Tiene" style="shape=rhombus;perimeter=rhombusPerimeter;whiteSpace=wrap;html=1;align=center;" parent="1" vertex="1">
          <mxGeometry x="1140" y="360" width="120" height="60" as="geometry" />
        </mxCell>
        <mxCell id="lFk9IerQNJr3fiCkYtgy-76" value="" style="endArrow=classic;html=1;rounded=0;exitX=1;exitY=1;exitDx=0;exitDy=0;" parent="1" source="lFk9IerQNJr3fiCkYtgy-4" edge="1" target="lFk9IerQNJr3fiCkYtgy-75">
          <mxGeometry width="50" height="50" relative="1" as="geometry">
            <mxPoint x="932" y="380" as="sourcePoint" />
            <mxPoint x="1120" y="420" as="targetPoint" />
            <Array as="points">
              <mxPoint x="1000" y="390" />
            </Array>
          </mxGeometry>
        </mxCell>
        <mxCell id="lFk9IerQNJr3fiCkYtgy-77" value="" style="endArrow=classic;html=1;rounded=0;entryX=1;entryY=0.5;entryDx=0;entryDy=0;" parent="1" source="lFk9IerQNJr3fiCkYtgy-60" target="lFk9IerQNJr3fiCkYtgy-75" edge="1">
          <mxGeometry width="50" height="50" relative="1" as="geometry">
            <mxPoint x="932" y="380" as="sourcePoint" />
            <mxPoint x="940" y="450" as="targetPoint" />
          </mxGeometry>
        </mxCell>
        <mxCell id="SbTGMap7O2Ixag9LzvXe-12" value="Clasifica" style="shape=rhombus;perimeter=rhombusPerimeter;whiteSpace=wrap;html=1;align=center;" vertex="1" parent="1">
          <mxGeometry x="1280" y="660" width="120" height="60" as="geometry" />
        </mxCell>
        <mxCell id="SbTGMap7O2Ixag9LzvXe-15" value="Clasifica" style="shape=rhombus;perimeter=rhombusPerimeter;whiteSpace=wrap;html=1;align=center;" vertex="1" parent="1">
          <mxGeometry x="900" y="810" width="120" height="60" as="geometry" />
        </mxCell>
        <mxCell id="SbTGMap7O2Ixag9LzvXe-18" style="edgeStyle=orthogonalEdgeStyle;rounded=0;orthogonalLoop=1;jettySize=auto;html=1;" edge="1" parent="1" source="SbTGMap7O2Ixag9LzvXe-17" target="SbTGMap7O2Ixag9LzvXe-15">
          <mxGeometry relative="1" as="geometry" />
        </mxCell>
        <mxCell id="SbTGMap7O2Ixag9LzvXe-19" style="edgeStyle=orthogonalEdgeStyle;rounded=0;orthogonalLoop=1;jettySize=auto;html=1;" edge="1" parent="1" source="SbTGMap7O2Ixag9LzvXe-17" target="lFk9IerQNJr3fiCkYtgy-35">
          <mxGeometry relative="1" as="geometry" />
        </mxCell>
        <mxCell id="SbTGMap7O2Ixag9LzvXe-23" style="edgeStyle=orthogonalEdgeStyle;rounded=0;orthogonalLoop=1;jettySize=auto;html=1;entryX=0.5;entryY=1;entryDx=0;entryDy=0;" edge="1" parent="1" source="SbTGMap7O2Ixag9LzvXe-17" target="SbTGMap7O2Ixag9LzvXe-21">
          <mxGeometry relative="1" as="geometry">
            <mxPoint x="1150" y="970" as="targetPoint" />
            <Array as="points">
              <mxPoint x="1125" y="970" />
              <mxPoint x="1350" y="970" />
            </Array>
          </mxGeometry>
        </mxCell>
        <mxCell id="SbTGMap7O2Ixag9LzvXe-17" value="Estado" style="whiteSpace=wrap;html=1;align=center;" vertex="1" parent="1">
          <mxGeometry x="1080" y="870" width="90" height="40" as="geometry" />
        </mxCell>
        <mxCell id="SbTGMap7O2Ixag9LzvXe-21" value="id" style="ellipse;whiteSpace=wrap;html=1;align=center;fontStyle=4;" vertex="1" parent="1">
          <mxGeometry x="1299.9999999999998" y="900" width="100" height="40" as="geometry" />
        </mxCell>
        <mxCell id="SbTGMap7O2Ixag9LzvXe-24" value="(1,n)" style="text;strokeColor=none;fillColor=none;spacingLeft=4;spacingRight=4;overflow=hidden;rotatable=0;points=[[0,0.5],[1,0.5]];portConstraint=eastwest;fontSize=12;whiteSpace=wrap;html=1;" vertex="1" parent="1">
          <mxGeometry x="935" y="870" width="40" height="30" as="geometry" />
        </mxCell>
        <mxCell id="SbTGMap7O2Ixag9LzvXe-28" value="id_usuario" style="ellipse;whiteSpace=wrap;html=1;align=center;" vertex="1" parent="1">
          <mxGeometry x="950" y="540" width="100" height="40" as="geometry" />
        </mxCell>
        <mxCell id="SbTGMap7O2Ixag9LzvXe-29" value="id_estado" style="ellipse;whiteSpace=wrap;html=1;align=center;" vertex="1" parent="1">
          <mxGeometry x="1030" y="690" width="100" height="40" as="geometry" />
        </mxCell>
        <mxCell id="SbTGMap7O2Ixag9LzvXe-30" style="edgeStyle=orthogonalEdgeStyle;rounded=0;orthogonalLoop=1;jettySize=auto;html=1;entryX=0.1;entryY=0.7;entryDx=0;entryDy=0;entryPerimeter=0;" edge="1" parent="1" source="lFk9IerQNJr3fiCkYtgy-32" target="SbTGMap7O2Ixag9LzvXe-29">
          <mxGeometry relative="1" as="geometry">
            <Array as="points">
              <mxPoint x="970" y="718" />
            </Array>
          </mxGeometry>
        </mxCell>
        <mxCell id="SbTGMap7O2Ixag9LzvXe-31" value="id_tipo" style="ellipse;whiteSpace=wrap;html=1;align=center;" vertex="1" parent="1">
          <mxGeometry x="1055" y="600" width="100" height="40" as="geometry" />
        </mxCell>
        <mxCell id="SbTGMap7O2Ixag9LzvXe-33" value="id_usuario" style="ellipse;whiteSpace=wrap;html=1;align=center;" vertex="1" parent="1">
          <mxGeometry x="1290" y="490" width="100" height="40" as="geometry" />
        </mxCell>
        <mxCell id="SbTGMap7O2Ixag9LzvXe-34" value="(1,n)" style="text;strokeColor=none;fillColor=none;spacingLeft=4;spacingRight=4;overflow=hidden;rotatable=0;points=[[0,0.5],[1,0.5]];portConstraint=eastwest;fontSize=12;whiteSpace=wrap;html=1;" vertex="1" parent="1">
          <mxGeometry x="1180" y="320" width="40" height="30" as="geometry" />
        </mxCell>
        <mxCell id="SbTGMap7O2Ixag9LzvXe-35" value="(1,n)" style="text;strokeColor=none;fillColor=none;spacingLeft=4;spacingRight=4;overflow=hidden;rotatable=0;points=[[0,0.5],[1,0.5]];portConstraint=eastwest;fontSize=12;whiteSpace=wrap;html=1;" vertex="1" parent="1">
          <mxGeometry x="1320" y="625" width="40" height="30" as="geometry" />
        </mxCell>
        <mxCell id="SbTGMap7O2Ixag9LzvXe-36" value="email" style="ellipse;whiteSpace=wrap;html=1;align=center;fontStyle=4;" vertex="1" parent="1">
          <mxGeometry x="670" y="330" width="100" height="40" as="geometry" />
        </mxCell>
        <mxCell id="SbTGMap7O2Ixag9LzvXe-37" value="id_usuario" style="ellipse;whiteSpace=wrap;html=1;align=center;" vertex="1" parent="1">
          <mxGeometry x="1810" y="750" width="100" height="40" as="geometry" />
        </mxCell>
      </root>
    </mxGraphModel>
  </diagram>
</mxfile>
